<svg width="962" height="613" viewBox="0 0 962 613" fill="none" xmlns="http://www.w3.org/2000/svg">
<path d="M729.434 573.292C740.386 573.292 749.265 582.17 749.265 593.123C749.265 604.075 740.387 612.954 729.434 612.954C718.482 612.954 709.603 604.075 709.603 593.123C709.603 582.171 718.482 573.292 729.434 573.292ZM716.16 0.920654C786.05 0.920654 827.984 0.920802 855.942 10.6013C900.532 26.8319 935.662 61.9618 951.892 106.552C958.298 124.151 961.573 142.733 961.573 161.46C961.573 180.186 958.298 198.769 951.892 216.368C935.662 260.958 900.531 296.088 855.942 312.318C827.984 321.999 786.05 321.999 716.16 321.999V321.999C708.255 321.999 704.302 321.999 702.645 322.875C699.568 324.502 698.258 327.005 698.676 330.461C698.901 332.321 701.428 335.963 706.483 343.245C720.359 363.237 728.491 387.517 728.491 413.697C728.491 435.044 723.083 455.128 713.563 472.654C709.039 480.983 710.997 491.627 716.042 499.651C720.339 506.485 722.825 514.573 722.825 523.241C722.825 547.754 702.953 567.625 678.44 567.625C663.609 567.625 650.478 560.35 642.419 549.174C636.877 541.487 627.761 535.643 618.341 536.671C613.888 537.157 609.364 537.406 604.782 537.406C536.459 537.406 481.072 482.02 481.072 413.697C481.072 388.594 488.549 365.237 501.398 345.732C507.606 336.309 510.71 331.598 510.549 329.074C510.392 326.608 509.53 325.008 507.558 323.521C505.538 321.999 500.493 321.999 490.401 321.999H246.287C176.396 321.999 134.463 321.999 106.505 312.318C61.9156 296.088 26.7857 260.958 10.5552 216.368C4.14973 198.769 0.874512 180.187 0.874512 161.46C0.874531 142.733 4.14968 124.151 10.5552 106.552C26.7857 61.9617 61.9156 26.8318 106.505 10.6013C134.463 0.920816 176.396 0.920654 246.287 0.920654H716.16Z" fill="white" style="fill:white;fill-opacity:1;"/>
</svg>
