<svg width="405" height="288" viewBox="0 0 405 288" fill="none" xmlns="http://www.w3.org/2000/svg">
<path d="M210.899 0C266.177 0 299.343 -0.000217228 321.455 7.65625C356.722 20.4932 384.507 48.2783 397.344 83.5449C402.41 97.4642 405 112.161 405 126.973C405 141.784 402.41 156.482 397.344 170.401C384.507 205.668 356.722 233.453 321.455 246.29C299.343 253.946 266.177 253.946 210.899 253.946H194.101C171.901 253.946 153.268 253.945 137.485 253.449C126.507 253.104 116.673 259.814 108.038 266.602V266.602C92.531 278.791 74.5864 289.372 53.7256 287.831C53.0541 287.781 52.494 287.293 52.3438 286.637C52.1917 285.972 52.4884 285.286 53.0762 284.941L54.2959 284.227C57.2441 282.03 59.6992 279.379 61.7714 276.4C65.2041 271.466 66.9205 268.999 68.0155 262.655C68.897 257.547 68.0893 250.869 66.0155 246.119C63.4395 240.218 56.6388 234.227 43.0375 222.244C27.2731 208.355 15.011 190.607 7.65625 170.401C2.59003 156.482 0 141.784 0 126.973C5.40156e-05 112.161 2.59008 97.4642 7.65625 83.5449C20.4932 48.2783 48.2782 20.4932 83.5449 7.65625C105.657 -0.000217228 138.823 0 194.101 0H210.899Z" fill="white" style="fill:white;fill-opacity:1;"/>
</svg>
