<svg width="534" height="288" viewBox="0 0 534 288" fill="none" xmlns="http://www.w3.org/2000/svg">
<path d="M194.101 0C138.823 0 105.657 -0.000217228 83.5449 7.65625C48.2782 20.4932 20.4932 48.2783 7.65625 83.5449C2.59008 97.4642 5.40156e-05 112.161 0 126.973C0 141.784 2.59003 156.482 7.65625 170.401C20.4933 205.668 48.2783 233.453 83.5449 246.29C105.657 253.946 138.823 253.946 194.101 253.946H339.899C362.099 253.946 380.732 253.945 396.515 253.449C407.493 253.104 417.327 259.814 425.962 266.602V266.602C441.469 278.791 459.414 289.372 480.274 287.831C480.946 287.781 481.506 287.293 481.656 286.637C481.808 285.972 481.512 285.286 480.924 284.941L479.704 284.227C476.756 282.03 474.301 279.379 472.229 276.4C468.796 271.466 467.08 268.999 465.984 262.655C465.103 257.547 465.911 250.869 467.985 246.119C470.561 240.218 477.361 234.227 490.962 222.244C506.727 208.355 518.989 190.607 526.344 170.401C531.41 156.482 534 141.784 534 126.973C534 112.161 531.41 97.4642 526.344 83.5449C513.507 48.2783 485.722 20.4932 450.455 7.65625C428.343 -0.000217228 395.177 0 339.899 0H194.101Z" fill="white" style="fill:white;fill-opacity:1;"/>
</svg>
