<svg width="657" height="288" viewBox="0 0 657 288" fill="none" xmlns="http://www.w3.org/2000/svg">
<path d="M194.101 0C138.823 0 105.657 -0.000217228 83.5449 7.65625C48.2782 20.4932 20.4932 48.2783 7.65625 83.5449C2.59008 97.4642 5.40156e-05 112.161 0 126.973C0 141.784 2.59003 156.482 7.65625 170.401C20.4933 205.668 48.2783 233.453 83.5449 246.29C105.657 253.946 138.823 253.946 194.101 253.946H462.899C485.099 253.946 503.732 253.945 519.515 253.449C530.493 253.104 540.327 259.814 548.962 266.602V266.602C564.469 278.791 582.414 289.372 603.274 287.831C603.946 287.781 604.506 287.293 604.656 286.637C604.808 285.972 604.512 285.286 603.924 284.941L602.704 284.227C599.756 282.03 597.301 279.379 595.229 276.4C591.796 271.466 590.08 268.999 588.984 262.655C588.103 257.547 588.911 250.869 590.985 246.119C593.561 240.218 600.361 234.227 613.962 222.244C629.727 208.355 641.989 190.607 649.344 170.401C654.41 156.482 657 141.784 657 126.973C657 112.161 654.41 97.4642 649.344 83.5449C636.507 48.2783 608.722 20.4932 573.455 7.65625C551.343 -0.000217228 518.177 0 462.899 0H194.101Z" fill="white" style="fill:white;fill-opacity:1;"/>
</svg>
